<svg width="400" height="250" viewBox="0 0 400 250" xmlns="http://www.w3.org/2000/svg">
  <defs>
    <linearGradient id="bg2048" x1="0%" y1="0%" x2="100%" y2="100%">
      <stop offset="0%" style="stop-color:#1a1a2e"/>
      <stop offset="100%" style="stop-color:#0f0f1a"/>
    </linearGradient>
  </defs>

  <!-- Background -->
  <rect width="400" height="250" fill="url(#bg2048)"/>

  <!-- Board background -->
  <rect x="60" y="25" width="280" height="200" rx="12" fill="#bbada0"/>

  <!-- Tiles -->
  <rect x="75" y="40" width="60" height="60" rx="6" fill="#eee4da"/>
  <text x="105" y="82" font-family="Arial Black" font-size="28" fill="#776e65" text-anchor="middle">2</text>

  <rect x="145" y="40" width="60" height="60" rx="6" fill="#ede0c8"/>
  <text x="175" y="82" font-family="Arial Black" font-size="28" fill="#776e65" text-anchor="middle">4</text>

  <rect x="215" y="40" width="60" height="60" rx="6" fill="#f2b179"/>
  <text x="245" y="82" font-family="Arial Black" font-size="24" fill="white" text-anchor="middle">16</text>

  <rect x="75" y="110" width="60" height="60" rx="6" fill="#f59563"/>
  <text x="105" y="152" font-family="Arial Black" font-size="24" fill="white" text-anchor="middle">32</text>

  <rect x="145" y="110" width="60" height="60" rx="6" fill="#f67c5f"/>
  <text x="175" y="152" font-family="Arial Black" font-size="22" fill="white" text-anchor="middle">128</text>

  <rect x="215" y="110" width="60" height="60" rx="6" fill="#f65e3b"/>
  <text x="245" y="152" font-family="Arial Black" font-size="22" fill="white" text-anchor="middle">256</text>

  <!-- 2048 tile highlight -->
  <rect x="285" y="40" width="60" height="130" rx="6" fill="#edc22e"/>
  <text x="315" y="120" font-family="Arial Black" font-size="20" fill="white" text-anchor="middle" transform="rotate(-90 315 115)">2048</text>
</svg>