<svg width="400" height="300" viewBox="0 0 400 300" xmlns="http://www.w3.org/2000/svg">
  <defs>
    <linearGradient id="bgGrad" x1="0%" y1="0%" x2="100%" y2="100%">
      <stop offset="0%" style="stop-color:#050510"/>
      <stop offset="100%" style="stop-color:#0a0a2e"/>
    </linearGradient>
    <linearGradient id="accentGrad" x1="0%" y1="0%" x2="100%" y2="0%">
      <stop offset="0%" style="stop-color:#e94560"/>
      <stop offset="100%" style="stop-color:#ff6b6b"/>
    </linearGradient>
    <filter id="glow" x="-50%" y="-50%" width="200%" height="200%">
      <feGaussianBlur stdDeviation="3" result="blur"/>
      <feMerge>
        <feMergeNode in="blur"/>
        <feMergeNode in="SourceGraphic"/>
      </feMerge>
    </filter>
  </defs>

  <!-- Background -->
  <rect width="400" height="300" fill="url(#bgGrad)"/>

  <!-- Stars -->
  <g fill="#fff" opacity="0.4">
    <circle cx="30" cy="40" r="1"/>
    <circle cx="80" cy="80" r="1.5"/>
    <circle cx="150" cy="30" r="1"/>
    <circle cx="250" cy="60" r="1.2"/>
    <circle cx="320" cy="45" r="1"/>
    <circle cx="370" cy="90" r="1.5"/>
    <circle cx="50" cy="150" r="1"/>
    <circle cx="340" cy="180" r="1.2"/>
    <circle cx="100" cy="220" r="1"/>
    <circle cx="280" cy="250" r="1.5"/>
    <circle cx="180" cy="270" r="1"/>
    <circle cx="60" cy="260" r="1.2"/>
  </g>

  <!-- Large asteroid -->
  <g transform="translate(100, 130)" stroke="#666" stroke-width="2" fill="none">
    <polygon points="0,-35 25,-25 35,-5 30,20 10,35 -20,30 -35,10 -30,-20"/>
  </g>

  <!-- Medium asteroid -->
  <g transform="translate(300, 100)" stroke="#888" stroke-width="2" fill="none">
    <polygon points="0,-20 15,-10 18,8 5,20 -15,15 -20,-5"/>
  </g>

  <!-- Small asteroid -->
  <g transform="translate(320, 200)" stroke="#aaa" stroke-width="2" fill="none">
    <polygon points="0,-10 8,-5 8,5 0,10 -8,5 -8,-5"/>
  </g>

  <!-- Ship -->
  <g transform="translate(200, 150) rotate(-30)" filter="url(#glow)">
    <!-- Engine trail -->
    <polygon points="-6,12 0,30 6,12" fill="#00d4ff" opacity="0.6"/>
    <!-- Ship body -->
    <polygon points="0,-18 -10,10 0,4 10,10" stroke="#fff" stroke-width="2" fill="none"/>
  </g>

  <!-- Bullets -->
  <g fill="#00d4ff" filter="url(#glow)">
    <circle cx="175" cy="120" r="3"/>
    <circle cx="155" cy="100" r="3"/>
    <circle cx="135" cy="80" r="3"/>
  </g>

  <!-- Scout drone -->
  <g transform="translate(280, 180)" stroke="#22c55e" stroke-width="2" fill="none">
    <polygon points="0,-12 12,0 0,12 -12,0"/>
  </g>

  <!-- Explosion particles -->
  <g fill="#ff6b6b" opacity="0.8">
    <circle cx="100" cy="130" r="4"/>
    <circle cx="115" cy="115" r="3"/>
    <circle cx="90" cy="145" r="3"/>
    <circle cx="85" cy="120" r="2"/>
  </g>

  <!-- Title -->
  <text x="200" y="260" font-family="system-ui, sans-serif" font-size="28" font-weight="800" fill="url(#accentGrad)" text-anchor="middle" filter="url(#glow)">VOIDBREAK</text>
</svg>
